<svg width="529" height="91" viewBox="0 0 529 91" fill="none" xmlns="http://www.w3.org/2000/svg">
<rect x="4.46802" y="23.4403" width="30.383" height="16.0851" rx="8.04255" fill="#8FA6C7"/>
<path d="M69.6079 24.0837C70.1463 23.2258 71.4924 23.2258 72.0308 24.0837L80.5112 37.5967C81.0496 38.4546 80.3766 39.5271 79.2997 39.5271H62.339C61.2621 39.5271 60.5891 38.4546 61.1275 37.5967L69.6079 24.0837Z" fill="#8FA6C7"/>
<rect x="87.0247" y="23.4402" width="16.0851" height="16.0851" rx="1.58101" fill="#8FA6C7"/>
<rect x="0.446809" y="19.419" width="107.234" height="24.1277" rx="1.13421" stroke="#8FA6C7" stroke-width="0.893617"/>
<rect x="204.57" y="5.36169" width="21" height="11.1702" rx="5.58511" fill="#8FA6C7"/>
<path d="M288.9 5.80438C289.288 5.21413 290.257 5.21413 290.645 5.80438L296.751 15.1007C297.138 15.691 296.654 16.4288 295.878 16.4288H283.667C282.891 16.4288 282.407 15.691 282.794 15.1007L288.9 5.80438Z" fill="#8FA6C7"/>
<rect x="302.249" y="5.36169" width="11.1702" height="11.1702" rx="1.58101" fill="#8FA6C7"/>
<path d="M199.655 1.58102C199.655 0.95461 200.162 0.446809 200.789 0.446809H317.2C317.826 0.446809 318.334 0.954611 318.334 1.58101V21.4468H199.655V1.58102Z" stroke="#8FA6C7" stroke-width="0.893617"/>
<rect x="204.57" y="46.4681" width="11.1702" height="11.1702" rx="1.58101" fill="#8FA6C7"/>
<path d="M199.208 21.8936H221.101H199.208ZM221.995 63.8936H200.789C199.422 63.8936 198.314 62.7857 198.314 61.419H200.101C200.101 61.7986 200.409 62.1064 200.789 62.1064H220.208L221.995 63.8936ZM200.789 63.8936C199.422 63.8936 198.314 62.7857 198.314 61.419V21.8936H200.101V61.419C200.101 61.7986 200.409 62.1064 200.789 62.1064L200.789 63.8936ZM221.995 21.8936V63.8936L220.208 62.1064V21.8936H221.995Z" fill="#8FA6C7" mask="url(#path-10-inside-1_924_7273)"/>
<rect x="199.655" y="0.446809" width="118.851" height="62.1064" rx="1.13421" stroke="#8FA6C7" stroke-width="0.893617"/>
<path d="M162.088 31.6202L155.386 27.7508V35.4897L162.088 31.6202ZM144.663 32.2905H156.056V30.95H144.663V32.2905Z" fill="#8FA6C7"/>
<path d="M369.201 31.6202L362.499 27.7508V35.4897L369.201 31.6202ZM351.776 32.2905H363.169V30.95H351.776V32.2905Z" fill="#8FA6C7"/>
<rect x="414.054" y="5.36169" width="14.2291" height="7.11457" rx="3.55728" fill="#8FA6C7"/>
<path d="M505.129 5.64628C505.396 5.26683 506.062 5.26683 506.329 5.64628L510.527 11.6225C510.793 12.002 510.46 12.4763 509.927 12.4763H501.531C500.998 12.4763 500.665 12.002 500.932 11.6225L505.129 5.64628Z" fill="#8FA6C7"/>
<rect x="515.982" y="5.36169" width="7.11457" height="7.11457" rx="1.58101" fill="#8FA6C7"/>
<path d="M409.139 1.58102C409.139 0.954611 409.647 0.446809 410.273 0.446809H526.478C527.104 0.446809 527.612 0.954611 527.612 1.58101V17.3912H409.139V1.58102Z" stroke="#8FA6C7" stroke-width="0.893617"/>
<rect x="414.054" y="22.5811" width="7.11457" height="7.11457" rx="1.58101" fill="#8FA6C7"/>
<rect x="414.054" y="35.0573" width="7.11457" height="7.11457" rx="1.58101" fill="#8FA6C7"/>
<rect x="414.054" y="47.5336" width="7.11457" height="7.11457" rx="1.58101" fill="#8FA6C7"/>
<path d="M408.692 17.838H426.53H408.692ZM427.424 63.7905H410.273C408.906 63.7905 407.799 62.6826 407.799 61.3159H409.586C409.586 61.6956 409.894 62.0033 410.273 62.0033H425.636L427.424 63.7905ZM410.273 63.7905C408.906 63.7905 407.799 62.6826 407.799 61.3159V17.838H409.586V61.3159C409.586 61.6956 409.894 62.0033 410.273 62.0033L410.273 63.7905ZM427.424 17.838V63.7905L425.636 62.0033V17.838H427.424Z" fill="#8FA6C7" mask="url(#path-20-inside-2_924_7273)"/>
<rect x="430.036" y="21.3437" width="71.1457" height="6.32406" rx="3.16203" fill="#8FA6C7"/>
<rect x="430.036" y="34.7823" width="25.2962" height="22.9247" rx="1.58101" fill="#8FA6C7"/>
<rect x="460.075" y="34.7823" width="63.2406" height="22.9247" rx="1.58101" fill="#8FA6C7"/>
<rect x="505.134" y="21.3437" width="18.1817" height="6.32406" rx="3.16203" fill="#8FA6C7"/>
<rect x="409.139" y="0.446809" width="118.851" height="62.1064" rx="1.13421" stroke="#8FA6C7" stroke-width="0.893617"/>
<path d="M32.084 84.959H29.9102V83.5879H32.084C32.4199 83.5879 32.6934 83.5332 32.9043 83.4238C33.1152 83.3105 33.2695 83.1543 33.3672 82.9551C33.4648 82.7559 33.5137 82.5312 33.5137 82.2812C33.5137 82.0273 33.4648 81.791 33.3672 81.5723C33.2695 81.3535 33.1152 81.1777 32.9043 81.0449C32.6934 80.9121 32.4199 80.8457 32.084 80.8457H30.5195V88H28.7617V79.4688H32.084C32.752 79.4688 33.3242 79.5898 33.8008 79.832C34.2812 80.0703 34.6484 80.4004 34.9023 80.8223C35.1562 81.2441 35.2832 81.7266 35.2832 82.2695C35.2832 82.8203 35.1562 83.2969 34.9023 83.6992C34.6484 84.1016 34.2812 84.4121 33.8008 84.6309C33.3242 84.8496 32.752 84.959 32.084 84.959ZM38.9922 80.9277L36.6719 88H34.8027L37.9727 79.4688H39.1621L38.9922 80.9277ZM40.9199 88L38.5938 80.9277L38.4062 79.4688H39.6074L42.7949 88H40.9199ZM40.8145 84.8242V86.2012H36.3086V84.8242H40.8145ZM46.6738 79.4688V88H44.9219V79.4688H46.6738ZM49.2988 79.4688V80.8457H42.3379V79.4688H49.2988ZM54.209 79.4688V88H52.457V79.4688H54.209ZM56.834 79.4688V80.8457H49.873V79.4688H56.834ZM63.5605 86.6289V88H59.0195V86.6289H63.5605ZM59.5938 79.4688V88H57.8359V79.4688H59.5938ZM62.9688 82.9434V84.2793H59.0195V82.9434H62.9688ZM63.5547 79.4688V80.8457H59.0195V79.4688H63.5547ZM64.5859 79.4688H67.7676C68.4199 79.4688 68.9805 79.5664 69.4492 79.7617C69.9219 79.957 70.2852 80.2461 70.5391 80.6289C70.793 81.0117 70.9199 81.4824 70.9199 82.041C70.9199 82.498 70.8418 82.8906 70.6855 83.2188C70.5332 83.543 70.3164 83.8145 70.0352 84.0332C69.7578 84.248 69.4316 84.4199 69.0566 84.5488L68.5 84.8418H65.7344L65.7227 83.4707H67.7793C68.0879 83.4707 68.3438 83.416 68.5469 83.3066C68.75 83.1973 68.9023 83.0449 69.0039 82.8496C69.1094 82.6543 69.1621 82.4277 69.1621 82.1699C69.1621 81.8965 69.1113 81.6602 69.0098 81.4609C68.9082 81.2617 68.7539 81.1094 68.5469 81.0039C68.3398 80.8984 68.0801 80.8457 67.7676 80.8457H66.3438V88H64.5859V79.4688ZM69.3555 88L67.4102 84.1973L69.2676 84.1855L71.2363 87.918V88H69.3555ZM79.2168 79.4688V88H77.459L74.0312 82.2812V88H72.2734V79.4688H74.0312L77.4648 85.1934V79.4688H79.2168Z" fill="#5A7495"/>
<path d="M232.576 79.4688V88H230.824V79.4688H232.576ZM235.201 79.4688V80.8457H228.24V79.4688H235.201ZM241.928 86.6289V88H237.387V86.6289H241.928ZM237.961 79.4688V88H236.203V79.4688H237.961ZM241.336 82.9434V84.2793H237.387V82.9434H241.336ZM241.922 79.4688V80.8457H237.387V79.4688H241.922ZM243.756 79.4688H245.244L247.436 85.7324L249.627 79.4688H251.115L248.033 88H246.838L243.756 79.4688ZM242.953 79.4688H244.436L244.705 85.5742V88H242.953V79.4688ZM250.436 79.4688H251.924V88H250.166V85.5742L250.436 79.4688ZM256.787 84.959H254.613V83.5879H256.787C257.123 83.5879 257.396 83.5332 257.607 83.4238C257.818 83.3105 257.973 83.1543 258.07 82.9551C258.168 82.7559 258.217 82.5312 258.217 82.2812C258.217 82.0273 258.168 81.791 258.07 81.5723C257.973 81.3535 257.818 81.1777 257.607 81.0449C257.396 80.9121 257.123 80.8457 256.787 80.8457H255.223V88H253.465V79.4688H256.787C257.455 79.4688 258.027 79.5898 258.504 79.832C258.984 80.0703 259.352 80.4004 259.605 80.8223C259.859 81.2441 259.986 81.7266 259.986 82.2695C259.986 82.8203 259.859 83.2969 259.605 83.6992C259.352 84.1016 258.984 84.4121 258.504 84.6309C258.027 84.8496 257.455 84.959 256.787 84.959ZM266.684 86.6289V88H262.389V86.6289H266.684ZM262.957 79.4688V88H261.199V79.4688H262.957ZM271.277 80.9277L268.957 88H267.088L270.258 79.4688H271.447L271.277 80.9277ZM273.205 88L270.879 80.9277L270.691 79.4688H271.893L275.08 88H273.205ZM273.1 84.8242V86.2012H268.594V84.8242H273.1ZM278.959 79.4688V88H277.207V79.4688H278.959ZM281.584 79.4688V80.8457H274.623V79.4688H281.584ZM288.311 86.6289V88H283.77V86.6289H288.311ZM284.344 79.4688V88H282.586V79.4688H284.344ZM287.719 82.9434V84.2793H283.77V82.9434H287.719ZM288.305 79.4688V80.8457H283.77V79.4688H288.305Z" fill="#5A7495"/>
<path d="M452.246 86.6289V88H447.951V86.6289H452.246ZM448.52 79.4688V88H446.762V79.4688H448.52ZM456.84 80.9277L454.52 88H452.65L455.82 79.4688H457.01L456.84 80.9277ZM458.768 88L456.441 80.9277L456.254 79.4688H457.455L460.643 88H458.768ZM458.662 84.8242V86.2012H454.156V84.8242H458.662ZM461.832 79.4688L463.613 83.3594L465.395 79.4688H467.311L464.504 84.8945V88H462.723V84.8945L459.91 79.4688H461.832ZM474.922 83.5352V83.9395C474.922 84.5879 474.834 85.1699 474.658 85.6855C474.482 86.2012 474.234 86.6406 473.914 87.0039C473.594 87.3633 473.211 87.6387 472.766 87.8301C472.324 88.0215 471.834 88.1172 471.295 88.1172C470.76 88.1172 470.27 88.0215 469.824 87.8301C469.383 87.6387 469 87.3633 468.676 87.0039C468.352 86.6406 468.1 86.2012 467.92 85.6855C467.744 85.1699 467.656 84.5879 467.656 83.9395V83.5352C467.656 82.8828 467.744 82.3008 467.92 81.7891C468.096 81.2734 468.344 80.834 468.664 80.4707C468.988 80.1074 469.371 79.8301 469.812 79.6387C470.258 79.4473 470.748 79.3516 471.283 79.3516C471.822 79.3516 472.312 79.4473 472.754 79.6387C473.199 79.8301 473.582 80.1074 473.902 80.4707C474.227 80.834 474.477 81.2734 474.652 81.7891C474.832 82.3008 474.922 82.8828 474.922 83.5352ZM473.146 83.9395V83.5234C473.146 83.0703 473.105 82.6719 473.023 82.3281C472.941 81.9844 472.82 81.6953 472.66 81.4609C472.5 81.2266 472.305 81.0508 472.074 80.9336C471.844 80.8125 471.58 80.752 471.283 80.752C470.986 80.752 470.723 80.8125 470.492 80.9336C470.266 81.0508 470.072 81.2266 469.912 81.4609C469.756 81.6953 469.637 81.9844 469.555 82.3281C469.473 82.6719 469.432 83.0703 469.432 83.5234V83.9395C469.432 84.3887 469.473 84.7871 469.555 85.1348C469.637 85.4785 469.758 85.7695 469.918 86.0078C470.078 86.2422 470.273 86.4199 470.504 86.541C470.734 86.6621 470.998 86.7227 471.295 86.7227C471.592 86.7227 471.855 86.6621 472.086 86.541C472.316 86.4199 472.51 86.2422 472.666 86.0078C472.822 85.7695 472.941 85.4785 473.023 85.1348C473.105 84.7871 473.146 84.3887 473.146 83.9395ZM480.898 79.4688H482.65V85.1055C482.65 85.7617 482.51 86.3145 482.229 86.7637C481.951 87.2129 481.566 87.5508 481.074 87.7773C480.586 88.0039 480.023 88.1172 479.387 88.1172C478.75 88.1172 478.184 88.0039 477.688 87.7773C477.195 87.5508 476.809 87.2129 476.527 86.7637C476.25 86.3145 476.111 85.7617 476.111 85.1055V79.4688H477.869V85.1055C477.869 85.4883 477.93 85.8008 478.051 86.043C478.172 86.2852 478.346 86.4629 478.572 86.5762C478.803 86.6895 479.074 86.7461 479.387 86.7461C479.707 86.7461 479.979 86.6895 480.201 86.5762C480.428 86.4629 480.6 86.2852 480.717 86.043C480.838 85.8008 480.898 85.4883 480.898 85.1055V79.4688ZM487.912 79.4688V88H486.16V79.4688H487.912ZM490.537 79.4688V80.8457H483.576V79.4688H490.537Z" fill="#5A7495"/>
</svg>
