<svg width="152" height="81" viewBox="0 0 152 81" fill="none" xmlns="http://www.w3.org/2000/svg">
<rect x="6.78259" y="7.1304" width="18" height="9" rx="4.5" fill="#8FA6C7"/>
<path d="M121.994 7.4904C122.331 7.0104 123.174 7.0104 123.511 7.4904L128.822 15.0504C129.159 15.5304 128.737 16.1304 128.063 16.1304H117.442C116.768 16.1304 116.347 15.5304 116.684 15.0504L121.994 7.4904Z" fill="#8FA6C7"/>
<rect x="135.723" y="7.1304" width="9" height="9" rx="2" fill="#8FA6C7"/>
<path d="M0.565217 2.34778C0.565217 1.55537 1.20759 0.912996 2 0.912996H149C149.792 0.912996 150.435 1.55537 150.435 2.34778V22.3478H0.565217V2.34778Z" stroke="#8FA6C7" stroke-width="1.13043"/>
<rect x="6.78259" y="28.913" width="9" height="9" rx="2" fill="#8FA6C7"/>
<rect x="6.78259" y="44.6956" width="9" height="9" rx="2" fill="#8FA6C7"/>
<rect x="6.78259" y="60.4782" width="9" height="9" rx="2" fill="#8FA6C7"/>
<path d="M0 22.913H22.5652H0ZM23.6957 81.0434H2C0.271109 81.0434 -1.13043 79.6419 -1.13043 77.913H1.13043C1.13043 78.3932 1.51975 78.7826 2 78.7826H21.4348L23.6957 81.0434ZM2 81.0434C0.271109 81.0434 -1.13043 79.6419 -1.13043 77.913V22.913H1.13043V77.913C1.13043 78.3932 1.51975 78.7826 2 78.7826V81.0434ZM23.6957 22.913V81.0434L21.4348 78.7826V22.913H23.6957Z" fill="#8FA6C7" mask="url(#path-6-inside-1_920_7206)"/>
<rect x="27" y="27.3478" width="90" height="8" rx="4" fill="#8FA6C7"/>
<rect x="27" y="44.3478" width="32" height="29" rx="2" fill="#8FA6C7"/>
<rect x="65" y="44.3478" width="80" height="29" rx="2" fill="#8FA6C7"/>
<rect x="122" y="27.3478" width="23" height="8" rx="4" fill="#8FA6C7"/>
<rect x="0.565217" y="0.912996" width="150.348" height="78.5652" rx="1.43478" stroke="#8FA6C7" stroke-width="1.13043"/>
</svg>
