<svg width="152" height="81" viewBox="0 0 152 81" fill="none" xmlns="http://www.w3.org/2000/svg">
<rect x="6.78259" y="7.43477" width="26.5652" height="14.1304" rx="7.06522" fill="#8FA6C7"/>
<path d="M113.462 7.99477C113.952 7.2481 115.178 7.2481 115.669 7.99477L123.393 19.7548C123.883 20.5014 123.27 21.4348 122.289 21.4348H106.841C105.86 21.4348 105.247 20.5014 105.738 19.7548L113.462 7.99477Z" fill="#8FA6C7"/>
<rect x="130.348" y="7.43477" width="14.1304" height="14.1304" rx="2" fill="#8FA6C7"/>
<path d="M0.565217 2.65216C0.565217 1.85975 1.20759 1.21738 2 1.21738H149.261C150.053 1.21738 150.696 1.85975 150.696 2.65216V27.7826H0.565217V2.65216Z" stroke="#8FA6C7" stroke-width="1.13043"/>
<rect x="6.78259" y="59.4348" width="14.1304" height="14.1304" rx="2" fill="#8FA6C7"/>
<path d="M0 28.3478H27.6957H0ZM28.8261 81.4782H2C0.271109 81.4782 -1.13043 80.0767 -1.13043 78.3478H1.13043C1.13043 78.8281 1.51975 79.2174 2 79.2174H26.5652L28.8261 81.4782ZM2 81.4782C0.271109 81.4782 -1.13043 80.0767 -1.13043 78.3478V28.3478H1.13043V78.3478C1.13043 78.8281 1.51975 79.2174 2 79.2174V81.4782ZM28.8261 28.3478V81.4782L26.5652 79.2174V28.3478H28.8261Z" fill="#8FA6C7" mask="url(#path-6-inside-1_919_7198)"/>
<rect x="0.565217" y="1.21738" width="150.348" height="78.5652" rx="1.43478" stroke="#8FA6C7" stroke-width="1.13043"/>
</svg>
